<svg xmlns="http://www.w3.org/2000/svg" viewBox="0 0 2400 1350" preserveAspectRatio="xMidYMid slice">
<defs>
<linearGradient id="bg" x1="0" y1="0" x2="0" y2="1">
<stop offset="0" stop-color="#332F2A"/><stop offset="0.55" stop-color="#292622"/><stop offset="1" stop-color="#1C1A17"/>
</linearGradient>
<radialGradient id="glow" cx="0.5" cy="0.5" r="0.5">
<stop offset="0" stop-color="#DCA468" stop-opacity="0.68"/><stop offset="0.4" stop-color="#DCA468" stop-opacity="0.16"/><stop offset="1" stop-color="#DCA468" stop-opacity="0"/>
</radialGradient>
<radialGradient id="vig" cx="0.5" cy="0.42" r="0.85">
<stop offset="0.55" stop-color="#000000" stop-opacity="0"/><stop offset="1" stop-color="#000000" stop-opacity="0.32"/>
</radialGradient>
<pattern id="dg" width="44" height="44" patternUnits="userSpaceOnUse">
<circle cx="1.5" cy="1.5" r="1.3" fill="#F5F2EB" opacity="0.045"/>
</pattern>
<filter id="grain"><feTurbulence type="fractalNoise" baseFrequency="0.8" numOctaves="2" stitchTiles="stitch"/><feColorMatrix type="saturate" values="0"/></filter>
</defs>
<rect width="2400" height="1350" fill="url(#bg)"/>
<rect width="2400" height="1350" fill="url(#dg)"/>
<circle cx="323" cy="1082" r="2.7" fill="#F5F2EB" opacity="0.24"/>
<circle cx="329" cy="1173" r="1.5" fill="#F5F2EB" opacity="0.15"/>
<circle cx="326" cy="944" r="2.1" fill="#F5F2EB" opacity="0.22"/>
<circle cx="413" cy="1072" r="3.1" fill="#F5F2EB" opacity="0.14"/>
<circle cx="309" cy="1112" r="2.0" fill="#F5F2EB" opacity="0.23"/>
<circle cx="394" cy="1222" r="2.2" fill="#F5F2EB" opacity="0.13"/>
<circle cx="475" cy="1112" r="2.0" fill="#F5F2EB" opacity="0.16"/>
<circle cx="210" cy="994" r="2.2" fill="#F5F2EB" opacity="0.09"/>
<circle cx="397" cy="1237" r="2.8" fill="#F5F2EB" opacity="0.29"/>
<circle cx="358" cy="1089" r="2.6" fill="#F5F2EB" opacity="0.28"/>
<circle cx="451" cy="948" r="2.5" fill="#F5F2EB" opacity="0.13"/>
<circle cx="291" cy="1151" r="2.0" fill="#F5F2EB" opacity="0.06"/>
<circle cx="516" cy="1075" r="2.6" fill="#F5F2EB" opacity="0.16"/>
<circle cx="422" cy="1126" r="2.3" fill="#F5F2EB" opacity="0.22"/>
<circle cx="499" cy="984" r="1.8" fill="#F5F2EB" opacity="0.17"/>
<circle cx="458" cy="942" r="3.2" fill="#F5F2EB" opacity="0.17"/>
<circle cx="-148" cy="1037" r="1.7" fill="#F5F2EB" opacity="0.25"/>
<circle cx="176" cy="1192" r="2.4" fill="#F5F2EB" opacity="0.08"/>
<circle cx="476" cy="973" r="2.1" fill="#F5F2EB" opacity="0.21"/>
<circle cx="511" cy="995" r="2.9" fill="#F5F2EB" opacity="0.26"/>
<circle cx="334" cy="1069" r="1.8" fill="#F5F2EB" opacity="0.22"/>
<circle cx="372" cy="1186" r="1.4" fill="#F5F2EB" opacity="0.11"/>
<circle cx="471" cy="1137" r="2.4" fill="#F5F2EB" opacity="0.12"/>
<circle cx="473" cy="1150" r="1.5" fill="#F5F2EB" opacity="0.26"/>
<circle cx="231" cy="1025" r="2.7" fill="#F5F2EB" opacity="0.16"/>
<circle cx="261" cy="1152" r="2.8" fill="#F5F2EB" opacity="0.11"/>
<circle cx="194" cy="985" r="1.9" fill="#F5F2EB" opacity="0.18"/>
<circle cx="496" cy="1249" r="1.4" fill="#F5F2EB" opacity="0.22"/>
<circle cx="446" cy="1187" r="2.9" fill="#F5F2EB" opacity="0.24"/>
<circle cx="621" cy="1090" r="2.3" fill="#F5F2EB" opacity="0.09"/>
<circle cx="80" cy="1044" r="3.3" fill="#F5F2EB" opacity="0.10"/>
<circle cx="531" cy="949" r="1.5" fill="#F5F2EB" opacity="0.18"/>
<circle cx="356" cy="1126" r="3.1" fill="#F5F2EB" opacity="0.12"/>
<circle cx="853" cy="1240" r="3.0" fill="#F5F2EB" opacity="0.17"/>
<circle cx="993" cy="1130" r="3.4" fill="#F5F2EB" opacity="0.22"/>
<circle cx="816" cy="1111" r="3.3" fill="#F5F2EB" opacity="0.20"/>
<circle cx="1043" cy="1133" r="2.6" fill="#F5F2EB" opacity="0.27"/>
<circle cx="889" cy="1242" r="2.4" fill="#F5F2EB" opacity="0.23"/>
<circle cx="791" cy="1156" r="2.5" fill="#F5F2EB" opacity="0.26"/>
<circle cx="624" cy="1091" r="2.9" fill="#F5F2EB" opacity="0.28"/>
<circle cx="815" cy="1214" r="1.9" fill="#F5F2EB" opacity="0.17"/>
<circle cx="1079" cy="1178" r="2.7" fill="#F5F2EB" opacity="0.12"/>
<circle cx="939" cy="1194" r="2.4" fill="#F5F2EB" opacity="0.24"/>
<circle cx="1063" cy="1254" r="1.9" fill="#F5F2EB" opacity="0.21"/>
<circle cx="941" cy="1097" r="2.0" fill="#F5F2EB" opacity="0.08"/>
<circle cx="1036" cy="1211" r="2.0" fill="#F5F2EB" opacity="0.13"/>
<circle cx="1084" cy="1178" r="1.7" fill="#F5F2EB" opacity="0.19"/>
<circle cx="1193" cy="1150" r="2.8" fill="#F5F2EB" opacity="0.12"/>
<circle cx="1139" cy="1189" r="1.5" fill="#F5F2EB" opacity="0.23"/>
<circle cx="823" cy="1087" r="2.5" fill="#F5F2EB" opacity="0.16"/>
<circle cx="877" cy="1297" r="1.8" fill="#F5F2EB" opacity="0.16"/>
<circle cx="1022" cy="1237" r="3.2" fill="#F5F2EB" opacity="0.16"/>
<circle cx="544" cy="1239" r="2.8" fill="#F5F2EB" opacity="0.20"/>
<circle cx="983" cy="1135" r="2.9" fill="#F5F2EB" opacity="0.27"/>
<circle cx="806" cy="1180" r="1.4" fill="#F5F2EB" opacity="0.15"/>
<circle cx="1159" cy="1093" r="2.9" fill="#F5F2EB" opacity="0.14"/>
<circle cx="836" cy="1292" r="3.3" fill="#F5F2EB" opacity="0.26"/>
<circle cx="833" cy="1150" r="2.9" fill="#F5F2EB" opacity="0.16"/>
<circle cx="915" cy="1078" r="2.6" fill="#F5F2EB" opacity="0.19"/>
<circle cx="933" cy="1080" r="1.8" fill="#F5F2EB" opacity="0.11"/>
<circle cx="1033" cy="1180" r="1.5" fill="#F5F2EB" opacity="0.16"/>
<circle cx="1243" cy="1203" r="2.8" fill="#F5F2EB" opacity="0.14"/>
<circle cx="1658" cy="967" r="1.7" fill="#F5F2EB" opacity="0.16"/>
<circle cx="1464" cy="1083" r="1.7" fill="#F5F2EB" opacity="0.17"/>
<circle cx="1707" cy="940" r="1.5" fill="#F5F2EB" opacity="0.21"/>
<circle cx="1609" cy="1102" r="2.5" fill="#F5F2EB" opacity="0.15"/>
<circle cx="1679" cy="1111" r="2.7" fill="#F5F2EB" opacity="0.07"/>
<circle cx="1487" cy="1023" r="2.3" fill="#F5F2EB" opacity="0.09"/>
<circle cx="1318" cy="1074" r="2.2" fill="#F5F2EB" opacity="0.07"/>
<circle cx="1455" cy="1204" r="2.1" fill="#F5F2EB" opacity="0.11"/>
<circle cx="1401" cy="1083" r="2.2" fill="#F5F2EB" opacity="0.24"/>
<circle cx="1276" cy="1032" r="3.1" fill="#F5F2EB" opacity="0.24"/>
<circle cx="1514" cy="1119" r="1.6" fill="#F5F2EB" opacity="0.12"/>
<circle cx="1668" cy="1057" r="2.5" fill="#F5F2EB" opacity="0.06"/>
<circle cx="1335" cy="1093" r="2.1" fill="#F5F2EB" opacity="0.30"/>
<circle cx="1547" cy="1095" r="3.0" fill="#F5F2EB" opacity="0.22"/>
<circle cx="1389" cy="1141" r="2.9" fill="#F5F2EB" opacity="0.22"/>
<circle cx="1491" cy="1110" r="1.8" fill="#F5F2EB" opacity="0.29"/>
<circle cx="1646" cy="1104" r="1.7" fill="#F5F2EB" opacity="0.06"/>
<circle cx="1517" cy="1214" r="2.7" fill="#F5F2EB" opacity="0.09"/>
<circle cx="1512" cy="1039" r="1.8" fill="#F5F2EB" opacity="0.20"/>
<circle cx="1495" cy="1166" r="2.9" fill="#F5F2EB" opacity="0.23"/>
<circle cx="1495" cy="1097" r="2.6" fill="#F5F2EB" opacity="0.10"/>
<circle cx="1635" cy="1023" r="1.6" fill="#F5F2EB" opacity="0.24"/>
<circle cx="1256" cy="1081" r="3.3" fill="#F5F2EB" opacity="0.26"/>
<circle cx="1510" cy="1017" r="1.5" fill="#F5F2EB" opacity="0.09"/>
<circle cx="1593" cy="1103" r="2.8" fill="#F5F2EB" opacity="0.13"/>
<circle cx="1351" cy="1097" r="2.2" fill="#F5F2EB" opacity="0.29"/>
<circle cx="2091" cy="1088" r="1.6" fill="#F5F2EB" opacity="0.23"/>
<circle cx="2188" cy="1206" r="2.7" fill="#F5F2EB" opacity="0.23"/>
<circle cx="2008" cy="1253" r="2.9" fill="#F5F2EB" opacity="0.08"/>
<circle cx="2193" cy="1162" r="2.6" fill="#F5F2EB" opacity="0.26"/>
<circle cx="2180" cy="1294" r="3.4" fill="#F5F2EB" opacity="0.09"/>
<circle cx="2013" cy="1241" r="2.1" fill="#F5F2EB" opacity="0.25"/>
<circle cx="1841" cy="1267" r="2.1" fill="#F5F2EB" opacity="0.16"/>
<circle cx="2074" cy="1202" r="2.1" fill="#F5F2EB" opacity="0.18"/>
<circle cx="2405" cy="1209" r="3.0" fill="#F5F2EB" opacity="0.26"/>
<circle cx="2456" cy="1174" r="3.3" fill="#F5F2EB" opacity="0.09"/>
<circle cx="2173" cy="1170" r="3.1" fill="#F5F2EB" opacity="0.21"/>
<circle cx="2016" cy="1215" r="2.3" fill="#F5F2EB" opacity="0.23"/>
<circle cx="2078" cy="1227" r="3.3" fill="#F5F2EB" opacity="0.24"/>
<circle cx="1969" cy="1234" r="3.0" fill="#F5F2EB" opacity="0.12"/>
<circle cx="2595" cy="1138" r="2.4" fill="#F5F2EB" opacity="0.19"/>
<circle cx="1896" cy="1165" r="2.9" fill="#F5F2EB" opacity="0.16"/>
<circle cx="2191" cy="1267" r="3.1" fill="#F5F2EB" opacity="0.12"/>
<circle cx="2314" cy="1189" r="1.6" fill="#F5F2EB" opacity="0.26"/>
<circle cx="1880" cy="1174" r="1.9" fill="#F5F2EB" opacity="0.27"/>
<circle cx="2306" cy="1248" r="2.6" fill="#F5F2EB" opacity="0.17"/>
<circle cx="1826" cy="1207" r="1.5" fill="#F5F2EB" opacity="0.15"/>
<circle cx="2204" cy="1236" r="1.8" fill="#F5F2EB" opacity="0.26"/>
<circle cx="1934" cy="1140" r="3.0" fill="#F5F2EB" opacity="0.11"/>
<circle cx="2127" cy="1252" r="3.2" fill="#F5F2EB" opacity="0.14"/>
<circle cx="684" cy="951" r="2.0" fill="#F5F2EB" opacity="0.23"/>
<circle cx="493" cy="933" r="3.3" fill="#F5F2EB" opacity="0.06"/>
<circle cx="493" cy="1019" r="2.8" fill="#F5F2EB" opacity="0.08"/>
<circle cx="366" cy="960" r="2.9" fill="#F5F2EB" opacity="0.18"/>
<circle cx="669" cy="1072" r="2.7" fill="#F5F2EB" opacity="0.23"/>
<circle cx="628" cy="1041" r="3.0" fill="#F5F2EB" opacity="0.18"/>
<circle cx="576" cy="935" r="1.8" fill="#F5F2EB" opacity="0.08"/>
<circle cx="546" cy="1072" r="2.0" fill="#F5F2EB" opacity="0.23"/>
<circle cx="729" cy="1009" r="2.3" fill="#F5F2EB" opacity="0.20"/>
<circle cx="986" cy="978" r="2.3" fill="#F5F2EB" opacity="0.19"/>
<circle cx="688" cy="999" r="2.1" fill="#F5F2EB" opacity="0.24"/>
<circle cx="596" cy="1120" r="1.9" fill="#F5F2EB" opacity="0.23"/>
<circle cx="576" cy="1006" r="1.6" fill="#F5F2EB" opacity="0.12"/>
<circle cx="612" cy="974" r="1.6" fill="#F5F2EB" opacity="0.11"/>
<circle cx="658" cy="933" r="2.9" fill="#F5F2EB" opacity="0.19"/>
<circle cx="1579" cy="1286" r="1.8" fill="#F5F2EB" opacity="0.10"/>
<circle cx="352" cy="965" r="2.8" fill="#F5F2EB" opacity="0.18"/>
<circle cx="288" cy="1136" r="2.4" fill="#F5F2EB" opacity="0.29"/>
<circle cx="672" cy="1156" r="1.6" fill="#F5F2EB" opacity="0.13"/>
<circle cx="1705" cy="999" r="1.9" fill="#F5F2EB" opacity="0.11"/>
<circle cx="1511" cy="1023" r="1.4" fill="#F5F2EB" opacity="0.10"/>
<circle cx="1173" cy="1273" r="1.9" fill="#F5F2EB" opacity="0.19"/>
<circle cx="2003" cy="956" r="2.5" fill="#F5F2EB" opacity="0.29"/>
<circle cx="1023" cy="1028" r="1.7" fill="#F5F2EB" opacity="0.23"/>
<circle cx="48" cy="1221" r="2.4" fill="#F5F2EB" opacity="0.27"/>
<circle cx="1518" cy="1022" r="2.5" fill="#F5F2EB" opacity="0.27"/>
<circle cx="1760" cy="1135" r="2.3" fill="#F5F2EB" opacity="0.17"/>
<circle cx="215" cy="1264" r="1.5" fill="#F5F2EB" opacity="0.10"/>
<circle cx="2137" cy="1133" r="2.4" fill="#F5F2EB" opacity="0.29"/>
<circle cx="1976" cy="1147" r="2.2" fill="#F5F2EB" opacity="0.26"/>
<circle cx="384" cy="970" r="2.7" fill="#F5F2EB" opacity="0.08"/>
<circle cx="755" cy="1271" r="1.7" fill="#F5F2EB" opacity="0.07"/>
<circle cx="1887" cy="1256" r="2.0" fill="#F5F2EB" opacity="0.20"/>
<circle cx="2126" cy="1002" r="1.6" fill="#F5F2EB" opacity="0.30"/>
<circle cx="619" cy="960" r="2.6" fill="#F5F2EB" opacity="0.24"/>
<circle cx="1850" cy="1265" r="1.9" fill="#F5F2EB" opacity="0.25"/>
<circle cx="983" cy="1162" r="2.3" fill="#F5F2EB" opacity="0.19"/>
<circle cx="399" cy="1283" r="3.1" fill="#F5F2EB" opacity="0.17"/>
<circle cx="2046" cy="1301" r="2.0" fill="#F5F2EB" opacity="0.30"/>
<circle cx="1921" cy="1264" r="2.6" fill="#F5F2EB" opacity="0.21"/>
<circle cx="98" cy="1207" r="3.3" fill="#F5F2EB" opacity="0.24"/>
<circle cx="811" cy="1283" r="1.8" fill="#F5F2EB" opacity="0.11"/>
<circle cx="1901" cy="1257" r="1.7" fill="#F5F2EB" opacity="0.22"/>
<circle cx="1921" cy="1024" r="1.6" fill="#F5F2EB" opacity="0.10"/>
<circle cx="1867" cy="962" r="2.3" fill="#F5F2EB" opacity="0.06"/>
<circle cx="2063" cy="1255" r="2.0" fill="#F5F2EB" opacity="0.20"/>
<circle cx="556" cy="1238" r="2.8" fill="#F5F2EB" opacity="0.12"/>
<circle cx="1108" cy="1039" r="2.3" fill="#F5F2EB" opacity="0.23"/>
<circle cx="1885" cy="1009" r="3.2" fill="#F5F2EB" opacity="0.22"/>
<circle cx="95" cy="995" r="2.7" fill="#F5F2EB" opacity="0.25"/>
<circle cx="802" cy="1257" r="3.3" fill="#F5F2EB" opacity="0.22"/>
<circle cx="2283" cy="1029" r="2.5" fill="#F5F2EB" opacity="0.16"/>
<circle cx="1528" cy="1076" r="3.2" fill="#F5F2EB" opacity="0.22"/>
<circle cx="2316" cy="1129" r="1.5" fill="#F5F2EB" opacity="0.26"/>
<circle cx="2219" cy="965" r="2.0" fill="#F5F2EB" opacity="0.10"/>
<circle cx="2291" cy="990" r="2.5" fill="#F5F2EB" opacity="0.24"/>
<circle cx="2273" cy="1024" r="1.6" fill="#F5F2EB" opacity="0.13"/>
<circle cx="291" cy="1089" r="2.8" fill="#F5F2EB" opacity="0.23"/>
<circle cx="1730" cy="1042" r="2.4" fill="#F5F2EB" opacity="0.29"/>
<circle cx="1446" cy="1119" r="1.6" fill="#F5F2EB" opacity="0.18"/>
<circle cx="934" cy="1145" r="2.3" fill="#F5F2EB" opacity="0.07"/>
<circle cx="631" cy="1196" r="1.9" fill="#F5F2EB" opacity="0.14"/>
<circle cx="44" cy="1281" r="3.3" fill="#F5F2EB" opacity="0.08"/>
<circle cx="1289" cy="1201" r="2.6" fill="#F5F2EB" opacity="0.26"/>
<circle cx="1480" cy="200" r="2" fill="#F5F2EB" opacity="0.19"/>
<circle cx="1480" cy="258" r="2" fill="#F5F2EB" opacity="0.20"/>
<circle cx="1480" cy="316" r="2" fill="#F5F2EB" opacity="0.16"/>
<circle cx="1480" cy="374" r="2" fill="#F5F2EB" opacity="0.11"/>
<circle cx="1480" cy="432" r="2" fill="#F5F2EB" opacity="0.08"/>
<circle cx="1480" cy="490" r="2" fill="#F5F2EB" opacity="0.17"/>
<circle cx="1480" cy="548" r="2" fill="#F5F2EB" opacity="0.13"/>
<circle cx="1480" cy="606" r="2" fill="#F5F2EB" opacity="0.15"/>
<circle cx="1480" cy="664" r="2" fill="#F5F2EB" opacity="0.19"/>
<circle cx="1480" cy="722" r="2" fill="#F5F2EB" opacity="0.09"/>
<circle cx="1480" cy="780" r="2" fill="#F5F2EB" opacity="0.15"/>
<circle cx="1538" cy="200" r="2" fill="#F5F2EB" opacity="0.15"/>
<circle cx="1538" cy="258" r="2" fill="#F5F2EB" opacity="0.13"/>
<circle cx="1538" cy="316" r="2" fill="#F5F2EB" opacity="0.08"/>
<circle cx="1538" cy="374" r="2" fill="#F5F2EB" opacity="0.12"/>
<circle cx="1538" cy="432" r="2" fill="#F5F2EB" opacity="0.11"/>
<circle cx="1538" cy="490" r="2" fill="#F5F2EB" opacity="0.16"/>
<circle cx="1538" cy="548" r="2" fill="#F5F2EB" opacity="0.18"/>
<circle cx="1538" cy="606" r="2" fill="#F5F2EB" opacity="0.11"/>
<circle cx="1538" cy="664" r="2" fill="#F5F2EB" opacity="0.16"/>
<circle cx="1538" cy="722" r="2" fill="#F5F2EB" opacity="0.11"/>
<circle cx="1538" cy="780" r="2" fill="#F5F2EB" opacity="0.19"/>
<circle cx="1596" cy="200" r="2" fill="#F5F2EB" opacity="0.18"/>
<circle cx="1596" cy="258" r="2" fill="#F5F2EB" opacity="0.14"/>
<circle cx="1596" cy="316" r="2" fill="#F5F2EB" opacity="0.13"/>
<circle cx="1596" cy="374" r="2" fill="#F5F2EB" opacity="0.11"/>
<circle cx="1596" cy="432" r="2" fill="#F5F2EB" opacity="0.11"/>
<circle cx="1596" cy="490" r="2" fill="#F5F2EB" opacity="0.20"/>
<circle cx="1596" cy="548" r="2" fill="#F5F2EB" opacity="0.12"/>
<circle cx="1596" cy="606" r="2" fill="#F5F2EB" opacity="0.14"/>
<circle cx="1596" cy="664" r="2" fill="#F5F2EB" opacity="0.20"/>
<circle cx="1596" cy="722" r="2" fill="#F5F2EB" opacity="0.16"/>
<circle cx="1596" cy="780" r="2" fill="#F5F2EB" opacity="0.14"/>
<circle cx="1654" cy="200" r="2" fill="#F5F2EB" opacity="0.12"/>
<circle cx="1654" cy="258" r="2" fill="#F5F2EB" opacity="0.09"/>
<circle cx="1654" cy="316" r="2" fill="#F5F2EB" opacity="0.12"/>
<circle cx="1654" cy="374" r="2" fill="#F5F2EB" opacity="0.17"/>
<circle cx="1654" cy="432" r="2" fill="#F5F2EB" opacity="0.15"/>
<circle cx="1654" cy="490" r="2" fill="#F5F2EB" opacity="0.17"/>
<circle cx="1654" cy="548" r="2" fill="#F5F2EB" opacity="0.10"/>
<circle cx="1654" cy="606" r="2" fill="#F5F2EB" opacity="0.14"/>
<circle cx="1654" cy="664" r="2" fill="#F5F2EB" opacity="0.19"/>
<circle cx="1654" cy="722" r="2" fill="#F5F2EB" opacity="0.13"/>
<circle cx="1654" cy="780" r="2" fill="#F5F2EB" opacity="0.16"/>
<circle cx="1712" cy="200" r="2" fill="#F5F2EB" opacity="0.09"/>
<circle cx="1712" cy="258" r="2" fill="#F5F2EB" opacity="0.20"/>
<circle cx="1712" cy="316" r="2" fill="#F5F2EB" opacity="0.15"/>
<circle cx="1712" cy="374" r="2" fill="#F5F2EB" opacity="0.10"/>
<circle cx="1712" cy="432" r="2" fill="#F5F2EB" opacity="0.09"/>
<circle cx="1712" cy="490" r="2" fill="#F5F2EB" opacity="0.14"/>
<circle cx="1712" cy="548" r="2" fill="#F5F2EB" opacity="0.14"/>
<circle cx="1712" cy="606" r="2" fill="#F5F2EB" opacity="0.08"/>
<circle cx="1712" cy="664" r="2" fill="#F5F2EB" opacity="0.20"/>
<circle cx="1712" cy="722" r="2" fill="#F5F2EB" opacity="0.19"/>
<circle cx="1712" cy="780" r="2" fill="#F5F2EB" opacity="0.13"/>
<circle cx="1770" cy="200" r="2" fill="#F5F2EB" opacity="0.09"/>
<circle cx="1770" cy="258" r="2" fill="#F5F2EB" opacity="0.18"/>
<circle cx="1770" cy="316" r="2" fill="#F5F2EB" opacity="0.13"/>
<circle cx="1770" cy="374" r="2" fill="#F5F2EB" opacity="0.16"/>
<circle cx="1770" cy="432" r="2" fill="#F5F2EB" opacity="0.14"/>
<circle cx="1770" cy="490" r="2" fill="#F5F2EB" opacity="0.11"/>
<circle cx="1770" cy="548" r="2" fill="#F5F2EB" opacity="0.18"/>
<circle cx="1770" cy="606" r="2" fill="#F5F2EB" opacity="0.20"/>
<circle cx="1770" cy="664" r="2" fill="#F5F2EB" opacity="0.10"/>
<circle cx="1770" cy="722" r="2" fill="#F5F2EB" opacity="0.14"/>
<circle cx="1770" cy="780" r="2" fill="#F5F2EB" opacity="0.12"/>
<circle cx="1828" cy="200" r="2" fill="#F5F2EB" opacity="0.19"/>
<circle cx="1828" cy="258" r="2" fill="#F5F2EB" opacity="0.14"/>
<circle cx="1828" cy="316" r="2" fill="#F5F2EB" opacity="0.18"/>
<circle cx="1828" cy="374" r="2" fill="#F5F2EB" opacity="0.18"/>
<circle cx="1828" cy="432" r="2" fill="#F5F2EB" opacity="0.11"/>
<circle cx="1828" cy="490" r="2" fill="#F5F2EB" opacity="0.17"/>
<circle cx="1828" cy="548" r="2" fill="#F5F2EB" opacity="0.12"/>
<circle cx="1828" cy="606" r="2" fill="#F5F2EB" opacity="0.19"/>
<circle cx="1828" cy="664" r="2" fill="#F5F2EB" opacity="0.14"/>
<circle cx="1828" cy="722" r="2" fill="#F5F2EB" opacity="0.18"/>
<circle cx="1828" cy="780" r="2" fill="#F5F2EB" opacity="0.11"/>
<circle cx="1886" cy="200" r="2" fill="#F5F2EB" opacity="0.11"/>
<circle cx="1886" cy="258" r="2" fill="#F5F2EB" opacity="0.15"/>
<circle cx="1886" cy="316" r="2" fill="#F5F2EB" opacity="0.20"/>
<circle cx="1886" cy="374" r="2" fill="#F5F2EB" opacity="0.13"/>
<circle cx="1886" cy="432" r="2" fill="#F5F2EB" opacity="0.09"/>
<circle cx="1886" cy="490" r="2" fill="#F5F2EB" opacity="0.14"/>
<circle cx="1886" cy="548" r="2" fill="#F5F2EB" opacity="0.11"/>
<circle cx="1886" cy="606" r="2" fill="#F5F2EB" opacity="0.14"/>
<circle cx="1886" cy="664" r="2" fill="#F5F2EB" opacity="0.14"/>
<circle cx="1886" cy="722" r="2" fill="#F5F2EB" opacity="0.13"/>
<circle cx="1886" cy="780" r="2" fill="#F5F2EB" opacity="0.11"/>
<circle cx="1944" cy="200" r="2" fill="#F5F2EB" opacity="0.09"/>
<circle cx="1944" cy="258" r="2" fill="#F5F2EB" opacity="0.16"/>
<circle cx="1944" cy="316" r="2" fill="#F5F2EB" opacity="0.14"/>
<circle cx="1944" cy="374" r="2" fill="#F5F2EB" opacity="0.10"/>
<circle cx="1944" cy="432" r="2" fill="#F5F2EB" opacity="0.17"/>
<circle cx="1944" cy="490" r="2" fill="#F5F2EB" opacity="0.08"/>
<circle cx="1944" cy="548" r="2" fill="#F5F2EB" opacity="0.17"/>
<circle cx="1944" cy="606" r="2" fill="#F5F2EB" opacity="0.16"/>
<circle cx="1944" cy="664" r="2" fill="#F5F2EB" opacity="0.18"/>
<circle cx="1944" cy="722" r="2" fill="#F5F2EB" opacity="0.12"/>
<circle cx="1944" cy="780" r="2" fill="#F5F2EB" opacity="0.16"/>
<circle cx="2002" cy="200" r="2" fill="#F5F2EB" opacity="0.18"/>
<circle cx="2002" cy="258" r="2" fill="#F5F2EB" opacity="0.20"/>
<circle cx="2002" cy="316" r="2" fill="#F5F2EB" opacity="0.13"/>
<circle cx="2002" cy="374" r="2" fill="#F5F2EB" opacity="0.07"/>
<circle cx="2002" cy="432" r="2" fill="#F5F2EB" opacity="0.14"/>
<circle cx="2002" cy="490" r="2" fill="#F5F2EB" opacity="0.15"/>
<circle cx="2002" cy="548" r="2" fill="#F5F2EB" opacity="0.18"/>
<circle cx="2002" cy="606" r="2" fill="#F5F2EB" opacity="0.18"/>
<circle cx="2002" cy="664" r="2" fill="#F5F2EB" opacity="0.13"/>
<circle cx="2002" cy="722" r="2" fill="#F5F2EB" opacity="0.14"/>
<circle cx="2002" cy="780" r="2" fill="#F5F2EB" opacity="0.13"/>
<circle cx="2060" cy="200" r="2" fill="#F5F2EB" opacity="0.16"/>
<circle cx="2060" cy="258" r="2" fill="#F5F2EB" opacity="0.12"/>
<circle cx="2060" cy="316" r="2" fill="#F5F2EB" opacity="0.16"/>
<circle cx="2060" cy="374" r="2" fill="#F5F2EB" opacity="0.09"/>
<circle cx="2060" cy="432" r="2" fill="#F5F2EB" opacity="0.13"/>
<circle cx="2060" cy="490" r="2" fill="#F5F2EB" opacity="0.20"/>
<circle cx="2060" cy="548" r="2" fill="#F5F2EB" opacity="0.11"/>
<circle cx="2060" cy="606" r="2" fill="#F5F2EB" opacity="0.16"/>
<circle cx="2060" cy="664" r="2" fill="#F5F2EB" opacity="0.15"/>
<circle cx="2060" cy="722" r="2" fill="#F5F2EB" opacity="0.18"/>
<circle cx="2060" cy="780" r="2" fill="#F5F2EB" opacity="0.18"/>
<circle cx="2118" cy="200" r="2" fill="#F5F2EB" opacity="0.18"/>
<circle cx="2118" cy="258" r="2" fill="#F5F2EB" opacity="0.12"/>
<circle cx="2118" cy="316" r="2" fill="#F5F2EB" opacity="0.11"/>
<circle cx="2118" cy="374" r="2" fill="#F5F2EB" opacity="0.16"/>
<circle cx="2118" cy="432" r="2" fill="#F5F2EB" opacity="0.17"/>
<circle cx="2118" cy="490" r="2" fill="#F5F2EB" opacity="0.18"/>
<circle cx="2118" cy="548" r="2" fill="#F5F2EB" opacity="0.07"/>
<circle cx="2118" cy="606" r="2" fill="#F5F2EB" opacity="0.08"/>
<circle cx="2118" cy="664" r="2" fill="#F5F2EB" opacity="0.15"/>
<circle cx="2118" cy="722" r="2" fill="#F5F2EB" opacity="0.19"/>
<circle cx="2118" cy="780" r="2" fill="#F5F2EB" opacity="0.20"/>
<circle cx="2176" cy="200" r="2" fill="#F5F2EB" opacity="0.17"/>
<circle cx="2176" cy="258" r="2" fill="#F5F2EB" opacity="0.13"/>
<circle cx="2176" cy="316" r="2" fill="#F5F2EB" opacity="0.08"/>
<circle cx="2176" cy="374" r="2" fill="#F5F2EB" opacity="0.15"/>
<circle cx="2176" cy="432" r="2" fill="#F5F2EB" opacity="0.18"/>
<circle cx="2176" cy="490" r="2" fill="#F5F2EB" opacity="0.13"/>
<circle cx="2176" cy="548" r="2" fill="#F5F2EB" opacity="0.16"/>
<circle cx="2176" cy="606" r="2" fill="#F5F2EB" opacity="0.19"/>
<circle cx="2176" cy="664" r="2" fill="#F5F2EB" opacity="0.08"/>
<circle cx="2176" cy="722" r="2" fill="#F5F2EB" opacity="0.17"/>
<circle cx="2176" cy="780" r="2" fill="#F5F2EB" opacity="0.11"/>
<circle cx="2234" cy="200" r="2" fill="#F5F2EB" opacity="0.12"/>
<circle cx="2234" cy="258" r="2" fill="#F5F2EB" opacity="0.09"/>
<circle cx="2234" cy="316" r="2" fill="#F5F2EB" opacity="0.14"/>
<circle cx="2234" cy="374" r="2" fill="#F5F2EB" opacity="0.14"/>
<circle cx="2234" cy="432" r="2" fill="#F5F2EB" opacity="0.17"/>
<circle cx="2234" cy="490" r="2" fill="#F5F2EB" opacity="0.09"/>
<circle cx="2234" cy="548" r="2" fill="#F5F2EB" opacity="0.08"/>
<circle cx="2234" cy="606" r="2" fill="#F5F2EB" opacity="0.18"/>
<circle cx="2234" cy="664" r="2" fill="#F5F2EB" opacity="0.15"/>
<circle cx="2234" cy="722" r="2" fill="#F5F2EB" opacity="0.10"/>
<circle cx="2234" cy="780" r="2" fill="#F5F2EB" opacity="0.19"/>
<circle cx="2292" cy="200" r="2" fill="#F5F2EB" opacity="0.09"/>
<circle cx="2292" cy="258" r="2" fill="#F5F2EB" opacity="0.13"/>
<circle cx="2292" cy="316" r="2" fill="#F5F2EB" opacity="0.10"/>
<circle cx="2292" cy="374" r="2" fill="#F5F2EB" opacity="0.10"/>
<circle cx="2292" cy="432" r="2" fill="#F5F2EB" opacity="0.07"/>
<circle cx="2292" cy="490" r="2" fill="#F5F2EB" opacity="0.17"/>
<circle cx="2292" cy="548" r="2" fill="#F5F2EB" opacity="0.19"/>
<circle cx="2292" cy="606" r="2" fill="#F5F2EB" opacity="0.16"/>
<circle cx="2292" cy="664" r="2" fill="#F5F2EB" opacity="0.09"/>
<circle cx="2292" cy="722" r="2" fill="#F5F2EB" opacity="0.13"/>
<circle cx="2292" cy="780" r="2" fill="#F5F2EB" opacity="0.11"/>
<circle cx="2350" cy="200" r="2" fill="#F5F2EB" opacity="0.15"/>
<circle cx="2350" cy="258" r="2" fill="#F5F2EB" opacity="0.15"/>
<circle cx="2350" cy="316" r="2" fill="#F5F2EB" opacity="0.13"/>
<circle cx="2350" cy="374" r="2" fill="#F5F2EB" opacity="0.10"/>
<circle cx="2350" cy="432" r="2" fill="#F5F2EB" opacity="0.18"/>
<circle cx="2350" cy="490" r="2" fill="#F5F2EB" opacity="0.10"/>
<circle cx="2350" cy="548" r="2" fill="#F5F2EB" opacity="0.12"/>
<circle cx="2350" cy="606" r="2" fill="#F5F2EB" opacity="0.13"/>
<circle cx="2350" cy="664" r="2" fill="#F5F2EB" opacity="0.10"/>
<circle cx="2350" cy="722" r="2" fill="#F5F2EB" opacity="0.14"/>
<circle cx="2350" cy="780" r="2" fill="#F5F2EB" opacity="0.14"/>
<line x1="1480" y1="200" x2="1480" y2="802" stroke="#F5F2EB" stroke-opacity="0.05" stroke-width="1"/>
<line x1="1596" y1="200" x2="1596" y2="802" stroke="#F5F2EB" stroke-opacity="0.05" stroke-width="1"/>
<line x1="1712" y1="200" x2="1712" y2="802" stroke="#F5F2EB" stroke-opacity="0.05" stroke-width="1"/>
<line x1="1828" y1="200" x2="1828" y2="802" stroke="#F5F2EB" stroke-opacity="0.05" stroke-width="1"/>
<line x1="1944" y1="200" x2="1944" y2="802" stroke="#F5F2EB" stroke-opacity="0.05" stroke-width="1"/>
<line x1="2060" y1="200" x2="2060" y2="802" stroke="#F5F2EB" stroke-opacity="0.05" stroke-width="1"/>
<line x1="2176" y1="200" x2="2176" y2="802" stroke="#F5F2EB" stroke-opacity="0.05" stroke-width="1"/>
<line x1="2292" y1="200" x2="2292" y2="802" stroke="#F5F2EB" stroke-opacity="0.05" stroke-width="1"/>
<line x1="1480" y1="200" x2="2342" y2="200" stroke="#F5F2EB" stroke-opacity="0.05" stroke-width="1"/>
<line x1="1480" y1="316" x2="2342" y2="316" stroke="#F5F2EB" stroke-opacity="0.05" stroke-width="1"/>
<line x1="1480" y1="432" x2="2342" y2="432" stroke="#F5F2EB" stroke-opacity="0.05" stroke-width="1"/>
<line x1="1480" y1="548" x2="2342" y2="548" stroke="#F5F2EB" stroke-opacity="0.05" stroke-width="1"/>
<line x1="1480" y1="664" x2="2342" y2="664" stroke="#F5F2EB" stroke-opacity="0.05" stroke-width="1"/>
<line x1="1480" y1="780" x2="2342" y2="780" stroke="#F5F2EB" stroke-opacity="0.05" stroke-width="1"/>
<line x1="0" y1="880" x2="2400" y2="880" stroke="#F5F2EB" stroke-opacity="0.15" stroke-width="1"/>
<line x1="0" y1="881" x2="2400" y2="881" stroke="#F5F2EB" stroke-opacity="0.05" stroke-width="3"/>
<path d="M 520 1120 Q 1040 400 1560 560" fill="none" stroke="#F5F2EB" stroke-opacity="0.10" stroke-width="1.4"/>
<circle cx="520" cy="1120" r="3" fill="#F5F2EB" opacity="0.25"/>
<circle cx="1560" cy="560" r="3" fill="#F5F2EB" opacity="0.30"/>
<path d="M 760 1230 Q 1220 310 1680 470" fill="none" stroke="#F5F2EB" stroke-opacity="0.10" stroke-width="1.4"/>
<circle cx="760" cy="1230" r="3" fill="#F5F2EB" opacity="0.25"/>
<circle cx="1680" cy="470" r="3" fill="#F5F2EB" opacity="0.30"/>
<path d="M 1030 1090 Q 1420 500 1810 660" fill="none" stroke="#F5F2EB" stroke-opacity="0.10" stroke-width="1.4"/>
<circle cx="1030" cy="1090" r="3" fill="#F5F2EB" opacity="0.25"/>
<circle cx="1810" cy="660" r="3" fill="#F5F2EB" opacity="0.30"/>
<path d="M 1260 1210 Q 1595 370 1930 530" fill="none" stroke="#F5F2EB" stroke-opacity="0.10" stroke-width="1.4"/>
<circle cx="1260" cy="1210" r="3" fill="#F5F2EB" opacity="0.25"/>
<circle cx="1930" cy="530" r="3" fill="#F5F2EB" opacity="0.30"/>
<path d="M 1430 1000 Q 1730 250 2030 410" fill="none" stroke="#F5F2EB" stroke-opacity="0.10" stroke-width="1.4"/>
<circle cx="1430" cy="1000" r="3" fill="#F5F2EB" opacity="0.25"/>
<circle cx="2030" cy="410" r="3" fill="#F5F2EB" opacity="0.30"/>
<circle cx="1780" cy="520" r="240" fill="url(#glow)"/>
<circle cx="1780" cy="520" r="230" fill="none" stroke="#F5F2EB" stroke-opacity="0.08" stroke-width="1" stroke-dasharray="2 10"/>
<line x1="1780" y1="520" x2="1955" y2="404" stroke="#DCA468" stroke-opacity="0.6" stroke-width="1.4"/>
<circle cx="1955" cy="404" r="3.5" fill="#DCA468" opacity="0.6"/>
<line x1="1780" y1="520" x2="2013" y2="520" stroke="#DCA468" stroke-opacity="0.6" stroke-width="1.4"/>
<circle cx="2013" cy="520" r="3.5" fill="#DCA468" opacity="0.6"/>
<line x1="1780" y1="520" x2="1897" y2="636" stroke="#DCA468" stroke-opacity="0.6" stroke-width="1.4"/>
<circle cx="1897" cy="636" r="3.5" fill="#DCA468" opacity="0.6"/>
<line x1="1780" y1="520" x2="1780" y2="1120" stroke="#DCA468" stroke-opacity="0.7" stroke-width="1.8"/>
<circle cx="1780" cy="520" r="46" fill="none" stroke="#DCA468" stroke-width="2" />
<circle cx="1780" cy="520" r="30" fill="none" stroke="#DCA468" stroke-width="1" opacity="0.5"/>
<circle cx="1780" cy="520" r="11" fill="#DCA468"/>
<circle cx="1780" cy="1120" r="13" fill="none" stroke="#DCA468" stroke-width="1.5" opacity="0.9"/>
<circle cx="1716" cy="1120" r="3.2" fill="#F5F2EB" opacity="0.35"/>
<circle cx="1780" cy="1120" r="3.2" fill="#F5F2EB" opacity="0.35"/>
<circle cx="1844" cy="1120" r="3.2" fill="#F5F2EB" opacity="0.35"/>
<line x1="1690" y1="1120" x2="1870" y2="1120" stroke="#DCA468" stroke-opacity="0.25" stroke-width="1"/>
<rect width="2400" height="1350" fill="url(#vig)"/>
<rect width="2400" height="1350" filter="url(#grain)" opacity="0.05"/>
</svg>